<?xml version="1.0" standalone="no"?><svg xmlns="http://www.w3.org/2000/svg" viewBox="0 0 1440 320"><path fill="#0b0b0b" fill-opacity="1" d="M0,128L7.7,112C15.5,96,31,64,46,85.3C61.9,107,77,181,93,176C108.4,171,124,85,139,58.7C154.8,32,170,64,186,101.3C201.3,139,217,181,232,170.7C247.7,160,263,96,279,64C294.2,32,310,32,325,64C340.6,96,356,160,372,208C387.1,256,403,288,418,298.7C433.5,309,449,299,465,282.7C480,267,495,245,511,229.3C526.5,213,542,203,557,218.7C572.9,235,588,277,604,277.3C619.4,277,635,235,650,224C665.8,213,681,235,697,234.7C712.3,235,728,213,743,192C758.7,171,774,149,790,128C805.2,107,821,85,836,101.3C851.6,117,867,171,883,208C898.1,245,914,267,929,234.7C944.5,203,960,117,975,96C991,75,1006,117,1022,149.3C1037.4,181,1053,203,1068,186.7C1083.9,171,1099,117,1115,122.7C1130.3,128,1146,192,1161,229.3C1176.8,267,1192,277,1208,245.3C1223.2,213,1239,139,1254,128C1269.7,117,1285,171,1301,197.3C1316.1,224,1332,224,1347,208C1362.6,192,1378,160,1394,149.3C1409,139,1425,149,1432,154.7L1440,160L1440,0L1432.3,0C1424.5,0,1409,0,1394,0C1378.1,0,1363,0,1347,0C1331.6,0,1316,0,1301,0C1285.2,0,1270,0,1254,0C1238.7,0,1223,0,1208,0C1192.3,0,1177,0,1161,0C1145.8,0,1130,0,1115,0C1099.4,0,1084,0,1068,0C1052.9,0,1037,0,1022,0C1006.5,0,991,0,975,0C960,0,945,0,929,0C913.5,0,898,0,883,0C867.1,0,852,0,836,0C820.6,0,805,0,790,0C774.2,0,759,0,743,0C727.7,0,712,0,697,0C681.3,0,666,0,650,0C634.8,0,619,0,604,0C588.4,0,573,0,557,0C541.9,0,526,0,511,0C495.5,0,480,0,465,0C449,0,434,0,418,0C402.6,0,387,0,372,0C356.1,0,341,0,325,0C309.7,0,294,0,279,0C263.2,0,248,0,232,0C216.8,0,201,0,186,0C170.3,0,155,0,139,0C123.9,0,108,0,93,0C77.4,0,62,0,46,0C31,0,15,0,8,0L0,0Z"></path></svg>