<?xml version="1.0" standalone="no"?><svg xmlns="http://www.w3.org/2000/svg" viewBox="0 0 1440 320"><path fill="#0b0b0b" fill-opacity="1" d="M0,224L7.7,224C15.5,224,31,224,46,234.7C61.9,245,77,267,93,277.3C108.4,288,124,288,139,256C154.8,224,170,160,186,128C201.3,96,217,96,232,101.3C247.7,107,263,117,279,112C294.2,107,310,85,325,90.7C340.6,96,356,128,372,144C387.1,160,403,160,418,144C433.5,128,449,96,465,85.3C480,75,495,85,511,112C526.5,139,542,181,557,213.3C572.9,245,588,267,604,282.7C619.4,299,635,309,650,304C665.8,299,681,277,697,234.7C712.3,192,728,128,743,90.7C758.7,53,774,43,790,64C805.2,85,821,139,836,165.3C851.6,192,867,192,883,181.3C898.1,171,914,149,929,138.7C944.5,128,960,128,975,106.7C991,85,1006,43,1022,26.7C1037.4,11,1053,21,1068,48C1083.9,75,1099,117,1115,112C1130.3,107,1146,53,1161,48C1176.8,43,1192,85,1208,85.3C1223.2,85,1239,43,1254,58.7C1269.7,75,1285,149,1301,192C1316.1,235,1332,245,1347,240C1362.6,235,1378,213,1394,186.7C1409,160,1425,128,1432,112L1440,96L1440,320L1432.3,320C1424.5,320,1409,320,1394,320C1378.1,320,1363,320,1347,320C1331.6,320,1316,320,1301,320C1285.2,320,1270,320,1254,320C1238.7,320,1223,320,1208,320C1192.3,320,1177,320,1161,320C1145.8,320,1130,320,1115,320C1099.4,320,1084,320,1068,320C1052.9,320,1037,320,1022,320C1006.5,320,991,320,975,320C960,320,945,320,929,320C913.5,320,898,320,883,320C867.1,320,852,320,836,320C820.6,320,805,320,790,320C774.2,320,759,320,743,320C727.7,320,712,320,697,320C681.3,320,666,320,650,320C634.8,320,619,320,604,320C588.4,320,573,320,557,320C541.9,320,526,320,511,320C495.5,320,480,320,465,320C449,320,434,320,418,320C402.6,320,387,320,372,320C356.1,320,341,320,325,320C309.7,320,294,320,279,320C263.2,320,248,320,232,320C216.8,320,201,320,186,320C170.3,320,155,320,139,320C123.9,320,108,320,93,320C77.4,320,62,320,46,320C31,320,15,320,8,320L0,320Z"></path></svg>