<?xml version="1.0" standalone="no"?><svg xmlns="http://www.w3.org/2000/svg" viewBox="0 0 1440 320"><path fill="#273036" fill-opacity="1" d="M0,192L57.6,320L115.2,160L172.8,32L230.4,256L288,224L345.6,224L403.2,96L460.8,224L518.4,320L576,224L633.6,256L691.2,256L748.8,288L806.4,64L864,128L921.6,256L979.2,256L1036.8,96L1094.4,192L1152,128L1209.6,0L1267.2,96L1324.8,64L1382.4,288L1440,160L1440,0L1382.4,0L1324.8,0L1267.2,0L1209.6,0L1152,0L1094.4,0L1036.8,0L979.2,0L921.6,0L864,0L806.4,0L748.8,0L691.2,0L633.6,0L576,0L518.4,0L460.8,0L403.2,0L345.6,0L288,0L230.4,0L172.8,0L115.2,0L57.6,0L0,0Z"></path></svg>