<svg width="127" height="195" viewBox="0 0 127 195" fill="none" xmlns="http://www.w3.org/2000/svg">
<g opacity="0.7">
<mask id="path-1-inside-1_88_1516" fill="#623cea">
<path fill-rule="evenodd" clip-rule="evenodd" d="M76.1354 0.000136912C77.3243 26.6872 56.6697 49.2994 29.9772 50.5186C56.6879 49.2997 79.3295 69.9645 80.549 96.6752L80.549 96.6755C79.3342 70.0679 99.8348 47.4977 126.396 46.1178C99.8382 47.1615 77.3801 26.5814 76.1384 0L76.1363 9.42535e-05C76.136 0.00010847 76.1357 0.00012269 76.1354 0.000136912ZM80.549 96.6755L80.5514 96.7293L80.5515 96.7293L80.549 96.6755Z"/>
</mask>
<path d="M76.1354 0.000136912L75.1364 0.0446449L75.0919 -0.953452L76.0899 -0.998831L76.1354 0.000136912ZM29.9772 50.5186L30.0228 51.5175L29.9316 49.5196L29.9772 50.5186ZM80.549 96.6752L79.5707 96.8827L79.5537 96.8026L79.55 96.7208L80.549 96.6752ZM126.396 46.1178L126.356 45.1186L126.447 47.1164L126.396 46.1178ZM76.1384 0L76.093 -0.99897L77.0907 -1.04428L77.1373 -0.0466618L76.1384 0ZM76.1363 9.42535e-05L76.0909 -0.998875L76.0909 -0.998876L76.1363 9.42535e-05ZM80.5514 96.7293L80.6253 97.7265L79.598 97.8026L79.5524 96.7736L80.5514 96.7293ZM80.5515 96.7293L81.5504 96.6831L81.5954 97.6547L80.6254 97.7265L80.5515 96.7293ZM77.1344 -0.0443711C78.3479 27.194 57.2667 50.2732 30.0229 51.5175L29.9316 49.5196C56.0728 48.3256 76.3008 26.1805 75.1364 0.0446449L77.1344 -0.0443711ZM79.55 96.7208C78.3557 70.5618 56.1817 50.3238 30.0228 51.5175L29.9317 49.5196C57.194 48.2756 80.3032 69.3672 81.5479 96.6296L79.55 96.7208ZM79.5708 96.883L79.5707 96.8827L81.5272 96.4677L81.5272 96.468L79.5708 96.883ZM126.447 47.1164C100.435 48.4678 80.3583 70.5719 81.548 96.6299L79.5501 96.7211C78.3102 69.5639 99.2341 46.5275 126.344 45.1191L126.447 47.1164ZM77.1373 -0.0466618C78.3533 25.9856 100.348 46.1407 126.356 45.1186L126.435 47.117C99.3288 48.1823 76.4068 27.1771 75.1395 0.0466618L77.1373 -0.0466618ZM76.0909 -0.998876L76.093 -0.99897L76.1837 0.99897L76.1817 0.999064L76.0909 -0.998876ZM76.0899 -0.998831L76.0909 -0.998875L76.1817 0.999063L76.1808 0.999105L76.0899 -0.998831ZM79.5524 96.7736L79.55 96.7198L81.548 96.6312L81.5504 96.685L79.5524 96.7736ZM80.6254 97.7265L80.6253 97.7265L80.4775 95.732L80.4776 95.732L80.6254 97.7265ZM81.5479 96.6293L81.5504 96.6831L79.5526 96.7755L79.5501 96.7217L81.5479 96.6293Z" fill="#623cea" mask="url(#path-1-inside-1_88_1516)"/>
<path fill-rule="evenodd" clip-rule="evenodd" d="M19.2763 156.37C19.7171 166.965 11.5524 175.94 0.974137 176.511C11.5575 176.116 20.5037 184.306 21.0342 194.893C20.5973 184.275 28.8022 175.287 39.416 174.756C28.7955 175.195 19.8042 166.987 19.2763 156.37Z" fill="#623cea"/>
</g>
</svg>
